<?xml version="1.0" encoding="UTF-8"?><svg xmlns="http://www.w3.org/2000/svg" viewBox="0 0 41.05 40.95"><g id="a"/><g id="b"><g id="c"><g><path d="M18.7,29.04c-1.52-.68-2.59-2.19-2.63-3.95h0V13.07h-4.39v11.91c0,.65,.07,1.28,.2,1.89,.43,1.97,1.52,3.7,3.02,4.94,.36,.3,.75,.57,1.16,.81,1.09,.64,2.34,1.05,3.66,1.17v-4.42c-.36-.06-.7-.17-1.03-.32Zm22.06-12.05c-1.56,.02-3.08,.21-4.54,.57-1.87,.45-3.64,1.16-5.27,2.08v5.52c1.58-1.3,3.42-2.29,5.42-2.9-.46,4.08-2.47,7.7-5.42,10.24v5.6c5.74-3.39,9.68-9.49,10.06-16.54,.02-.38,.03-.76,.03-1.14,0-1.17-.1-2.31-.29-3.43Zm-30.67,2.64c-1.63-.92-3.4-1.63-5.27-2.08-1.46-.35-2.98-.55-4.54-.57-.19,1.11-.29,2.26-.29,3.43,0,.38,.01,.76,.03,1.14,.39,7.05,4.33,13.15,10.06,16.54v-5.6c-2.95-2.55-4.96-6.16-5.42-10.24,2,.61,3.84,1.61,5.42,2.9v-5.52Z" style="fill:#c84936;"/><g><path d="M20.53,5.85l4.46,5.63v4.07c1.81,.86,3.33,2.22,4.39,3.91v-7.97l-5.05-6.56L20.53,0l-3.79,4.92-5.05,6.56h4.39l4.46-5.63Z" style="fill:#c84936;"/><path d="M24.91,17.3c-.11-.07-.23-.13-.35-.19-.04-.02-.08-.04-.13-.06-.15-.08-.31-.15-.47-.22h-.02c-.15-.07-.31-.13-.46-.19-.05-.02-.1-.03-.15-.05-.12-.04-.24-.08-.36-.11-.05-.01-.1-.03-.16-.04-.17-.04-.34-.09-.51-.12h-.02c-.16-.04-.33-.07-.5-.09-.05,0-.11-.01-.16-.02-.13-.02-.26-.03-.39-.04-.05,0-.11,0-.16-.01-.18-.01-.36-.02-.54-.02-1,0-1.97,.17-2.87,.48v4.96c.58-.49,1.29-.84,2.08-.98,.26-.05,.52-.07,.79-.07s.54,.03,.79,.07c1.44,.26,2.64,1.21,3.24,2.49,.24,.51,.39,1.08,.42,1.68,0,0,0,0,0,0v.35h0c-.04,1.76-1.11,3.27-2.63,3.95-.33,.15-.67,.26-1.03,.32v4.42c1.33-.12,2.57-.53,3.66-1.17v3.14s-.08,.02-.12,.03c-1.13,.32-2.32,.52-3.54,.58-.25,.01-.51,.02-.76,.02h-.06c-.26,0-.51,0-.76-.02-1.22-.06-2.41-.26-3.54-.58-.04-.01-.08-.02-.12-.03-.07-.02-.14-.04-.22-.06-1.43-.44-2.78-1.07-4-1.87-.06-.03-.11-.07-.17-.11v5.24c1.27,.61,2.62,1.09,4.02,1.43,1.46,.35,2.98,.55,4.54,.57,.09,0,.19,0,.28,0s.19,0,.29,0c1.56-.02,3.08-.21,4.54-.57,1.4-.34,2.75-.82,4.02-1.43v-13.97c0-3.29-1.8-6.16-4.46-7.68Z" style="fill:#c84936;"/></g></g></g></g></svg>