<!--?xml version="1.0" standalone="no"?--><svg version="1.0" xmlns="http://www.w3.org/2000/svg" width="283.000000pt" height="300.000000pt" viewBox="0 0 283.000000 300.000000" preserveAspectRatio="xMidYMid meet">
<metadata>
  <rdf:rdf xmlns:rdf="http://www.w3.org/1999/02/22-rdf-syntax-ns#" xmlns:rdfs="http://www.w3.org/2000/01/rdf-schema#" xmlns:dc="http://purl.org/dc/elements/1.1/">
    <rdf:description dc:title="Rick Astley stencil" dc:publisher="Hiox" dc:date="2015-05-11" dc:format="image/svg+xml" dc:language="en">
      <dc:creator>
        <rdf:bag>
          <rdf:li>svgimages.com</rdf:li>
        </rdf:bag>
      </dc:creator>
    </rdf:description>
  </rdf:rdf>
</metadata>
<g transform="translate(0.000000,300.000000) scale(0.100000,-0.100000)" fill="#0A0A0A" stroke="none">
<path d="M1189 2937 c-26 -14 -73 -28 -105 -32 -33 -4 -77 -15 -99 -25 -22
-10 -56 -21 -76 -25 -40 -7 -113 -61 -104 -76 4 -5 -5 -24 -18 -41 -14 -18
-28 -44 -32 -58 -4 -13 -34 -76 -66 -139 -33 -62 -59 -126 -59 -140 0 -17 13
-42 35 -65 19 -21 35 -49 35 -62 0 -14 12 -32 30 -46 32 -23 40 -64 18 -86 -8
-8 -9 -21 -1 -49 6 -21 17 -58 24 -83 12 -43 64 -164 95 -222 8 -14 14 -36 14
-47 0 -12 5 -21 11 -21 7 0 9 19 5 58 -5 42 -2 62 8 75 18 23 73 30 151 20
l60 -9 -56 -18 c-40 -13 -60 -26 -72 -46 -10 -15 -17 -31 -17 -34 0 -14 31 -4
57 18 24 20 30 21 41 10 17 -18 67 -18 85 1 8 8 17 12 19 9 3 -2 11 2 18 11
11 13 10 19 -4 34 -16 17 -16 19 0 25 47 18 -54 56 -149 56 -70 0 -96 -8 -133
-42 -27 -24 -29 -20 -45 113 -13 118 -7 230 16 265 33 51 65 57 241 51 l160
-6 63 44 c72 50 121 61 240 50 l78 -7 23 -41 c17 -31 24 -69 31 -147 14 -182
19 -166 -53 -174 -115 -13 -251 -76 -279 -128 -11 -21 -7 -203 6 -278 6 -30 2
-40 -27 -72 -25 -29 -42 -39 -71 -41 -44 -4 -50 -20 -10 -27 15 -3 41 -14 56
-24 35 -24 114 -31 147 -14 35 19 72 77 64 102 -4 12 -21 44 -39 71 -67 103
-76 138 -53 202 12 32 28 45 28 22 0 -6 14 1 31 15 37 31 50 32 67 5 11 -16
21 -20 48 -17 23 3 34 0 34 -9 0 -17 42 -17 114 2 32 8 62 13 67 9 16 -10 10
-53 -16 -101 -35 -67 -60 -128 -79 -195 -9 -32 -28 -69 -41 -84 -17 -18 -25
-38 -25 -62 0 -28 3 -33 12 -24 17 17 58 15 58 -3 0 -26 -48 -113 -72 -129
-29 -21 -78 -21 -78 -1 0 9 11 37 24 63 36 68 42 100 21 108 -11 4 -27 -4 -48
-24 -20 -19 -51 -35 -82 -43 -27 -6 -77 -20 -110 -31 -33 -10 -90 -22 -127
-25 -38 -3 -68 -10 -68 -14 0 -12 217 -11 258 0 61 18 27 -23 -43 -52 -22 -9
-49 -17 -59 -19 -11 -2 -21 -9 -24 -17 -4 -12 13 -13 106 -8 l111 6 25 -31
c23 -30 23 -33 8 -54 -29 -39 -126 -74 -204 -74 -27 0 -48 -4 -48 -10 0 -14
192 -100 258 -114 21 -5 32 -13 32 -25 0 -24 -42 -45 -74 -37 -40 10 -124 63
-170 106 -67 64 -54 24 15 -46 66 -66 148 -114 198 -114 15 0 71 15 123 34 69
24 99 31 107 23 17 -17 13 -31 -14 -57 -36 -34 -31 -74 10 -78 25 -2 48 12
139 88 59 49 112 90 116 90 5 0 12 -9 15 -20 9 -28 22 -25 40 10 9 16 17 30
19 30 2 0 -5 -39 -16 -87 -31 -139 -31 -143 -19 -143 19 0 80 105 91 157 6 26
14 57 19 68 5 11 24 54 43 95 30 70 154 248 194 281 16 13 17 12 10 -11 -43
-145 -76 -339 -76 -452 0 -69 40 -6 66 105 8 31 27 84 44 117 30 59 30 60 30
229 0 93 -3 176 -6 184 -4 13 -14 13 -72 1 -37 -8 -97 -22 -134 -33 l-66 -19
-22 23 c-22 24 -93 45 -151 45 -16 0 -31 6 -33 13 -18 55 -15 64 25 108 65 71
92 138 97 244 4 88 3 92 -24 125 l-29 33 0 196 0 196 -44 84 c-73 138 -153
218 -247 247 -43 14 -54 22 -54 39 0 30 -20 85 -31 85 -5 0 -12 0 -16 1 -5 0
-10 -10 -13 -23 -5 -20 -9 -17 -35 30 -21 38 -33 51 -45 47 -9 -3 -29 4 -43
15 -21 16 -45 22 -104 25 -43 2 -118 7 -168 10 -83 6 -93 5 -136 -18z" id="node1" class="node" stroke-width="20"></path>
<path d="M1005 1247 c-122 -48 -275 -205 -412 -422 -66 -104 -153 -264 -153
-280 0 -17 16 -17 67 2 36 13 -19 -38 -74 -69 -29 -17 -53 -34 -53 -39 0 -5
225 -9 540 -9 l540 0 6 26 c11 43 -5 205 -27 274 -23 71 -69 174 -91 203 -13
17 -16 16 -56 -22 -37 -35 -49 -41 -88 -41 -27 0 -62 9 -92 24 -64 34 -130 37
-162 8 -14 -12 -43 -38 -65 -58 l-40 -35 24 -18 24 -18 -62 -21 c-33 -11 -61
-17 -61 -13 0 15 94 135 163 208 112 119 160 153 213 153 24 0 44 3 44 8 0 4
-23 30 -50 59 -27 29 -54 61 -60 72 -12 23 -31 25 -75 8z" id="node2" class="node" stroke-width="20"></path>
<path d="M1621 782 c-39 -19 -41 -26 -66 -162 -12 -71 -24 -105 -46 -137 -16
-23 -29 -44 -29 -47 0 -3 76 -6 169 -6 l169 0 6 31 c3 17 6 67 6 111 l0 80
-72 74 c-39 41 -78 74 -87 74 -9 0 -31 -8 -50 -18z" id="node3" class="node" stroke-width="20"></path>
<path d="M2313 693 c-42 -71 -83 -172 -90 -221 l-6 -43 63 3 62 3 13 39 c35
101 41 219 13 254 -17 20 -26 14 -55 -35z" id="node4" class="node" stroke-width="20"></path>
<path d="M2122 613 c-30 -32 -52 -94 -52 -144 0 -39 0 -39 39 -39 l38 0 7 77
c12 143 9 151 -32 106z" id="node5" class="node" stroke-width="20"></path>















</g>
<g transform="translate(0.000000,300.000000) scale(0.100000,-0.100000)" fill="#FFFFFF" stroke="none">










</g>
</svg>